<mxfile host="app.diagrams.net" modified="2024-04-16T08:52:14.589Z" agent="Mozilla/5.0 (Windows NT 10.0; Win64; x64) AppleWebKit/537.36 (KHTML, like Gecko) Chrome/123.0.0.0 Safari/537.36 Edg/123.0.0.0" etag="O7i29PWCW8amf7UOHY5Y" version="24.2.5" type="github">
  <diagram name="第 1 页" id="QfjBI3t27yRYNn6DPLTv">
    <mxGraphModel dx="1386" dy="751" grid="1" gridSize="10" guides="1" tooltips="1" connect="1" arrows="1" fold="1" page="1" pageScale="1" pageWidth="827" pageHeight="1169" math="0" shadow="0">
      <root>
        <mxCell id="0" />
        <mxCell id="1" parent="0" />
        <mxCell id="mp79EvVix5RwFyLxPJJG-2" value="" style="image;sketch=0;aspect=fixed;html=1;points=[];align=center;fontSize=12;image=img/lib/mscae/Cache_Redis_Product.svg;" vertex="1" parent="1">
          <mxGeometry x="471.38" y="240" width="95.24" height="80" as="geometry" />
        </mxCell>
        <mxCell id="mp79EvVix5RwFyLxPJJG-4" value="" style="outlineConnect=0;dashed=0;verticalLabelPosition=bottom;verticalAlign=top;align=center;html=1;shape=mxgraph.aws3.management_console;fillColor=#D2D3D3;gradientColor=none;" vertex="1" parent="1">
          <mxGeometry x="100" y="436.5" width="63" height="63" as="geometry" />
        </mxCell>
        <mxCell id="mp79EvVix5RwFyLxPJJG-13" style="edgeStyle=orthogonalEdgeStyle;rounded=0;orthogonalLoop=1;jettySize=auto;html=1;exitX=0.9;exitY=0.2;exitDx=0;exitDy=0;exitPerimeter=0;curved=1;endArrow=classicThin;endFill=1;startArrow=classic;startFill=1;" edge="1" parent="1" source="mp79EvVix5RwFyLxPJJG-5" target="mp79EvVix5RwFyLxPJJG-2">
          <mxGeometry relative="1" as="geometry">
            <Array as="points">
              <mxPoint x="520" y="430" />
            </Array>
          </mxGeometry>
        </mxCell>
        <mxCell id="mp79EvVix5RwFyLxPJJG-14" value="基础数据存取" style="edgeLabel;html=1;align=center;verticalAlign=middle;resizable=0;points=[];" vertex="1" connectable="0" parent="mp79EvVix5RwFyLxPJJG-13">
          <mxGeometry x="0.3619" y="31" relative="1" as="geometry">
            <mxPoint as="offset" />
          </mxGeometry>
        </mxCell>
        <mxCell id="mp79EvVix5RwFyLxPJJG-15" style="edgeStyle=orthogonalEdgeStyle;rounded=0;orthogonalLoop=1;jettySize=auto;html=1;curved=1;" edge="1" parent="1" source="mp79EvVix5RwFyLxPJJG-5" target="mp79EvVix5RwFyLxPJJG-6">
          <mxGeometry relative="1" as="geometry" />
        </mxCell>
        <mxCell id="mp79EvVix5RwFyLxPJJG-16" value="异步处理" style="edgeLabel;html=1;align=center;verticalAlign=middle;resizable=0;points=[];" vertex="1" connectable="0" parent="mp79EvVix5RwFyLxPJJG-15">
          <mxGeometry x="-0.3367" y="-17" relative="1" as="geometry">
            <mxPoint y="1" as="offset" />
          </mxGeometry>
        </mxCell>
        <mxCell id="mp79EvVix5RwFyLxPJJG-5" value="" style="aspect=fixed;sketch=0;html=1;dashed=0;whitespace=wrap;fillColor=#2875E2;strokeColor=#ffffff;points=[[0.005,0.63,0],[0.1,0.2,0],[0.9,0.2,0],[0.5,0,0],[0.995,0.63,0],[0.72,0.99,0],[0.5,1,0],[0.28,0.99,0]];shape=mxgraph.kubernetes.icon2;kubernetesLabel=1;prIcon=api" vertex="1" parent="1">
          <mxGeometry x="300" y="412.5" width="91.67" height="88" as="geometry" />
        </mxCell>
        <mxCell id="mp79EvVix5RwFyLxPJJG-18" style="edgeStyle=orthogonalEdgeStyle;rounded=0;orthogonalLoop=1;jettySize=auto;html=1;" edge="1" parent="1" source="mp79EvVix5RwFyLxPJJG-6" target="mp79EvVix5RwFyLxPJJG-17">
          <mxGeometry relative="1" as="geometry" />
        </mxCell>
        <mxCell id="mp79EvVix5RwFyLxPJJG-19" value="消费" style="edgeLabel;html=1;align=center;verticalAlign=middle;resizable=0;points=[];" vertex="1" connectable="0" parent="mp79EvVix5RwFyLxPJJG-18">
          <mxGeometry x="-0.0588" y="5" relative="1" as="geometry">
            <mxPoint as="offset" />
          </mxGeometry>
        </mxCell>
        <mxCell id="mp79EvVix5RwFyLxPJJG-6" value="" style="sketch=0;points=[[0,0,0],[0.25,0,0],[0.5,0,0],[0.75,0,0],[1,0,0],[0,1,0],[0.25,1,0],[0.5,1,0],[0.75,1,0],[1,1,0],[0,0.25,0],[0,0.5,0],[0,0.75,0],[1,0.25,0],[1,0.5,0],[1,0.75,0]];outlineConnect=0;fontColor=#232F3E;fillColor=#E7157B;strokeColor=#ffffff;dashed=0;verticalLabelPosition=bottom;verticalAlign=top;align=center;html=1;fontSize=12;fontStyle=0;aspect=fixed;shape=mxgraph.aws4.resourceIcon;resIcon=mxgraph.aws4.sqs;" vertex="1" parent="1">
          <mxGeometry x="474" y="530" width="90" height="90" as="geometry" />
        </mxCell>
        <mxCell id="mp79EvVix5RwFyLxPJJG-8" style="edgeStyle=orthogonalEdgeStyle;rounded=0;orthogonalLoop=1;jettySize=auto;html=1;entryX=0.005;entryY=0.63;entryDx=0;entryDy=0;entryPerimeter=0;startArrow=classic;startFill=1;" edge="1" parent="1" source="mp79EvVix5RwFyLxPJJG-4" target="mp79EvVix5RwFyLxPJJG-5">
          <mxGeometry relative="1" as="geometry" />
        </mxCell>
        <mxCell id="mp79EvVix5RwFyLxPJJG-9" value="请求" style="edgeLabel;html=1;align=center;verticalAlign=middle;resizable=0;points=[];" vertex="1" connectable="0" parent="mp79EvVix5RwFyLxPJJG-8">
          <mxGeometry x="-0.2585" y="3" relative="1" as="geometry">
            <mxPoint as="offset" />
          </mxGeometry>
        </mxCell>
        <mxCell id="mp79EvVix5RwFyLxPJJG-10" value="响应" style="text;html=1;align=center;verticalAlign=middle;resizable=0;points=[];autosize=1;strokeColor=none;fillColor=none;" vertex="1" parent="1">
          <mxGeometry x="174" y="464" width="50" height="30" as="geometry" />
        </mxCell>
        <mxCell id="mp79EvVix5RwFyLxPJJG-22" style="edgeStyle=orthogonalEdgeStyle;rounded=0;orthogonalLoop=1;jettySize=auto;html=1;curved=1;" edge="1" parent="1" source="mp79EvVix5RwFyLxPJJG-17" target="mp79EvVix5RwFyLxPJJG-2">
          <mxGeometry relative="1" as="geometry">
            <Array as="points">
              <mxPoint x="747" y="280" />
            </Array>
          </mxGeometry>
        </mxCell>
        <mxCell id="mp79EvVix5RwFyLxPJJG-23" value="存储处理结果" style="edgeLabel;html=1;align=center;verticalAlign=middle;resizable=0;points=[];" vertex="1" connectable="0" parent="mp79EvVix5RwFyLxPJJG-22">
          <mxGeometry x="-0.197" y="39" relative="1" as="geometry">
            <mxPoint as="offset" />
          </mxGeometry>
        </mxCell>
        <mxCell id="mp79EvVix5RwFyLxPJJG-17" value="" style="sketch=0;points=[[0,0,0],[0.25,0,0],[0.5,0,0],[0.75,0,0],[1,0,0],[0,1,0],[0.25,1,0],[0.5,1,0],[0.75,1,0],[1,1,0],[0,0.25,0],[0,0.5,0],[0,0.75,0],[1,0.25,0],[1,0.5,0],[1,0.75,0]];outlineConnect=0;fontColor=#232F3E;fillColor=#ED7100;strokeColor=#ffffff;dashed=0;verticalLabelPosition=bottom;verticalAlign=top;align=center;html=1;fontSize=12;fontStyle=0;aspect=fixed;shape=mxgraph.aws4.resourceIcon;resIcon=mxgraph.aws4.ec2;" vertex="1" parent="1">
          <mxGeometry x="700" y="528" width="94" height="94" as="geometry" />
        </mxCell>
      </root>
    </mxGraphModel>
  </diagram>
</mxfile>
